<svg width="10" height="32" xmlns="http://www.w3.org/2000/svg" xml:space="preserve" enable-background="new 0 0 32 32" version="1.1">

 <g>
  <title>Layer 1</title>
  <g stroke="null" id="svg_1">
   <path stroke="null" id="svg_2" d="m5,11.5c1.378,0 2.5,-1.122 2.5,-2.5s-1.122,-2.5 -2.5,-2.5s-2.5,1.122 -2.5,2.5s1.122,2.5 2.5,2.5zm0,-4c0.827,0 1.5,0.673 1.5,1.5s-0.673,1.5 -1.5,1.5s-1.5,-0.673 -1.5,-1.5s0.673,-1.5 1.5,-1.5z" fill="#808184"/>
   <path stroke="null" id="svg_3" d="m5,17.5c1.378,0 2.5,-1.122 2.5,-2.5s-1.122,-2.5 -2.5,-2.5s-2.5,1.122 -2.5,2.5s1.122,2.5 2.5,2.5zm0,-4c0.827,0 1.5,0.673 1.5,1.5s-0.673,1.5 -1.5,1.5s-1.5,-0.673 -1.5,-1.5s0.673,-1.5 1.5,-1.5z" fill="#808184"/>
   <path stroke="null" id="svg_4" d="m5,23.5c1.378,0 2.5,-1.122 2.5,-2.5s-1.122,-2.5 -2.5,-2.5s-2.5,1.122 -2.5,2.5s1.122,2.5 2.5,2.5zm0,-4c0.827,0 1.5,0.673 1.5,1.5s-0.673,1.5 -1.5,1.5s-1.5,-0.673 -1.5,-1.5s0.673,-1.5 1.5,-1.5z" fill="#808184"/>
  </g>
 </g>
</svg>