<svg width="24" height="64" xmlns="http://www.w3.org/2000/svg" xml:space="preserve" enable-background="new 0 0 32 32" version="1.1">

 <g>
  <title>Layer 1</title>
  <g stroke="null" id="svg_1">
   <path stroke="null" id="svg_2" d="m12,20.47059c-5.2364,0 -9.5,-3.696 -9.5,-8.23529s4.2636,-8.23529 9.5,-8.23529s9.5,3.696 9.5,8.23529s-4.2636,8.23529 -9.5,8.23529zm0,-13.17647c-3.1426,0 -5.7,2.21694 -5.7,4.94118s2.5574,4.94118 5.7,4.94118s5.7,-2.21694 5.7,-4.94118s-2.5574,-4.94118 -5.7,-4.94118z" fill="#808184"/>
   <path stroke="null" id="svg_3" d="m12,40.23529c-5.2364,0 -9.5,-3.696 -9.5,-8.23529s4.2636,-8.23529 9.5,-8.23529s9.5,3.696 9.5,8.23529s-4.2636,8.23529 -9.5,8.23529zm0,-13.17647c-3.1426,0 -5.7,2.21694 -5.7,4.94118s2.5574,4.94118 5.7,4.94118s5.7,-2.21694 5.7,-4.94118s-2.5574,-4.94118 -5.7,-4.94118z" fill="#808184"/>
   <path stroke="null" id="svg_4" d="m12,60c-5.2364,0 -9.5,-3.696 -9.5,-8.23529s4.2636,-8.23529 9.5,-8.23529s9.5,3.696 9.5,8.23529s-4.2636,8.23529 -9.5,8.23529zm0,-13.17647c-3.1426,0 -5.7,2.21694 -5.7,4.94118s2.5574,4.94118 5.7,4.94118s5.7,-2.21694 5.7,-4.94118s-2.5574,-4.94118 -5.7,-4.94118z" fill="#808184"/>
  </g>
 </g>
</svg>