<svg fill="none" height="44" viewBox="0 0 44 44" width="44" xmlns="http://www.w3.org/2000/svg"><g fill="#f36633"><path d="m17.0178 18.0354c0-3.5264.0517-7.0496-.0141-10.5776-.0689-3.69245 2.7149-5.58646 5.5128-5.51596 4.7484.11749 9.503.02976 14.256.03133 3.1943 0 5.2653 2.08826 5.2669 5.30447v14.41266c0 3.2052-2.057 5.2856-5.2842 5.2997-4.1248.0188-8.2512-.0094-12.376.0251-.4802.0181-.9452.1724-1.341.4449-1.2627.8789-2.4752 1.8282-3.705 2.7541-.4888.3681-.9822.741-1.6339.412s-.6815-.929-.6815-1.5494c.0021-3.6783.0021-7.3588 0-11.0413zm2.3499 9.2069c1.0026-.752 1.8501-1.3552 2.6632-2.0069.5075-.4109 1.1475-.6226 1.8-.5953 4.1781.0188 8.3562.0094 12.5327.0079 2.4078 0 3.3321-.9149 3.3321-3.2899v-13.79377c0-2.30759-.9258-3.24441-3.2068-3.24441h-13.786c-2.4047 0-3.329.91176-3.3305 3.28984v18.64244z"/><path d="m13.2786 32.0032c1.8627 1.211 3.1238 2.8794 3.4355 5.0883.1864 1.3316.1426 2.7086.0783 4.0606-.0329.6987-.636.9399-1.3159.9399-2.5849-.0078-5.1697 0-7.75461 0-1.46163 0-2.92482 0-4.38645 0-.96502 0-1.43656-.4261-1.3927-1.3707.0705-1.5306.047-3.0956.38068-4.5761.40105-1.7859 1.61986-3.1222 3.23501-4.1545-1.66841-1.4648-2.5316-3.2711-2.34988-5.4674.115-1.5559.83618-3.0045 2.00837-4.034 1.16017-1.0573 2.67777-1.6359 4.24735-1.6193 1.56963.0165 3.07463.627 4.21223 1.7086 2.6491 2.5473 2.5159 5.8481-.3979 9.4246zm1.1608 7.6982c.2663-2.2856-.224-4.2517-2.2198-5.5551-1.8251-1.1922-3.75985-1.211-5.58963-.0361-2.02716 1.2972-2.5598 3.2805-2.30758 5.5912zm-1.2094-12.5546c.0117-.5078-.0778-1.0128-.2632-1.4857-.1855-.4728-.4631-.904-.8168-1.2685s-.7764-.655-1.2435-.8545c-.467-.1996-.96913-.3042-1.47702-.3078-1.01278.0003-1.98569.3947-2.71286 1.0996-.72716.7049-1.15152 1.6652-1.18326 2.6774.00034 1.0264.40019 2.0122 1.11487 2.7489.71467.7366 1.68803 1.166 2.71388 1.1974 2.07259.0188 3.84439-1.7217 3.86789-3.8068z"/><path d="m28.3812 15.7253c0-1.4491.1175-1.5932 1.5196-1.8423.4637-.0926.8797-.3459 1.1746-.7154.295-.3695.4499-.8313.4374-1.3039-.0361-.4866-.2458-.944-.5908-1.2891-.3451-.345-.8025-.5547-1.2891-.59085-.4725-.01622-.9354.13655-1.3055.43085s-.6232.7108-.7138 1.1749c-.03.2583-.0797.5139-.1488.7645-.2131.6141-.694.8366-1.2987.7332s-.8867-.4857-.9274-1.0857c-.1645-2.47833 2.3357-4.73892 4.8078-4.34101 2.0992.33839 3.5107 1.78592 3.7959 3.88831.2365 1.7467-.8554 3.5436-2.6382 4.3864-.2146.1059-.3846.2847-.4794.5045-.3039.8412-.6893 1.1702-1.3911 1.0496-.7723-.1316-.9822-.6784-.9572-1.3786.0094-.1254.0047-.2554.0047-.3854z"/><path d="m30.716 20.1205c-.0013.3013-.1185.5906-.3273.8079-.2089.2173-.4933.3459-.7944.3592-.1552.0157-.312-.002-.4598-.0517-.1479-.0498-.2834-.1305-.3976-.2368s-.2044-.2358-.2645-.3797c-.0602-.144-.0889-.2991-.0843-.4551-.0107-.1494.0093-.2994.0588-.4408.0495-.1413.1274-.2711.229-.3812s.2246-.1982.3616-.2589c.1369-.0607.2849-.0927.4346-.094.3146-.0136.6219.0976.8549.3094.2329.2119.3728.5072.389.8217z"/></g></svg>